HIERARCHY
ROOT Hips
{
    OFFSET 0.000000 0.000000 0.000000
    CHANNELS 6 Xposition Yposition Zposition Zrotation Xrotation Yrotation
    JOINT Spine
    {
        OFFSET -0.000000 7.236184 0.000000
        CHANNELS 3 Zrotation Xrotation Yrotation
        JOINT Spine1
        {
            OFFSET -0.000000 20.420147 0.000000
            CHANNELS 3 Zrotation Xrotation Yrotation
            JOINT Neck
            {
                OFFSET -0.000000 20.336288 1.848754
                CHANNELS 3 Zrotation Xrotation Yrotation
                JOINT Head
                {
                    OFFSET -0.000000 12.354461 -1.764923
                    CHANNELS 3 Zrotation Xrotation Yrotation
                    End Site
                    {
                        OFFSET -0.000000 22.061537 0.000000
                    }
                }
            }
            JOINT LeftShoulder
            {
                OFFSET 3.573296 18.396038 -0.314103
                CHANNELS 3 Zrotation Xrotation Yrotation
                JOINT LeftArm
                {
                    OFFSET 10.880760 0.000000 0.000000
                    CHANNELS 3 Zrotation Xrotation Yrotation
                    JOINT LeftForeArm
                    {
                        OFFSET 27.185530 0.000000 0.000000
                        CHANNELS 3 Zrotation Xrotation Yrotation
                        JOINT LeftHand
                        {
                            OFFSET 27.825975 0.000000 0.000000
                            CHANNELS 3 Zrotation Xrotation Yrotation
                            End Site
                            {
                                OFFSET 13.236923 0.000000 0.000000
                            }
                        }
                    }
                }
            }
            JOINT RightShoulder
            {
                OFFSET -3.474926 18.396038 -0.314103
                CHANNELS 3 Zrotation Xrotation Yrotation
                JOINT RightArm
                {
                    OFFSET -10.880760 0.000000 0.000000
                    CHANNELS 3 Zrotation Xrotation Yrotation
                    JOINT RightForeArm
                    {
                        OFFSET -27.185530 0.000000 0.000000
                        CHANNELS 3 Zrotation Xrotation Yrotation
                        JOINT RightHand
                        {
                            OFFSET -27.825975 0.000000 0.000000
                            CHANNELS 3 Zrotation Xrotation Yrotation
                            End Site
                            {
                                OFFSET -13.236923 0.000000 0.000000
                            }
                        }
                    }
                }
            }
        }
    }
    JOINT LeftUpLeg
    {
        OFFSET 8.824615 0.000000 0.000000
        CHANNELS 3 Zrotation Xrotation Yrotation
        JOINT LeftLeg
        {
            OFFSET -0.000000 -35.111282 0.000000
            CHANNELS 3 Zrotation Xrotation Yrotation
            JOINT LeftFoot
            {
                OFFSET -0.000000 -42.324711 0.000000
                CHANNELS 3 Zrotation Xrotation Yrotation
                JOINT LeftToeBase
                {
                    OFFSET -0.000000 -5.735999 13.236923
                    CHANNELS 3 Zrotation Xrotation Yrotation
                    End Site
                    {
                        OFFSET -0.000000 0.000000 3.529846
                    }
                }
            }
        }
    }
    JOINT RightUpLeg
    {
        OFFSET -8.824615 0.000000 0.000000
        CHANNELS 3 Zrotation Xrotation Yrotation
        JOINT RightLeg
        {
            OFFSET -0.000000 -35.111282 0.000000
            CHANNELS 3 Zrotation Xrotation Yrotation
            JOINT RightFoot
            {
                OFFSET -0.000000 -42.324711 0.000000
                CHANNELS 3 Zrotation Xrotation Yrotation
                JOINT RightToeBase
                {
                    OFFSET -0.000000 -5.735999 13.236923
                    CHANNELS 3 Zrotation Xrotation Yrotation
                    End Site
                    {
                        OFFSET -0.000000 0.000000 3.529846
                    }
                }
            }
        }
    }
}
MOTION
Frames:    12
Frame Time:    0.008333
-1.107864    76.471031    116.020988    5.054474    -23.671917    176.557739    -1.795658    -3.152467    -1.677086    5.571300    3.405360    -1.793410    8.092194    2.099211    3.023343    2.794451    -10.714448    2.744818    3.802531    7.155411    -9.217239    -35.824810    20.332697    -38.450680    7.847211    -3.555430    -18.714172    15.333012    -2.430702    -1.254132    8.763699    17.397116    -8.900399    47.376930    34.124474    23.708601    -3.455888    -9.515560    18.004208    -10.011236    -8.797534    -2.051044    35.439671    -47.336197    25.202394    -8.664025    47.280746    16.940947    -14.787257    -10.221474    -25.439920    3.709487    -1.727265    -4.124504    -40.341927    -48.467014    -26.338726    14.041121    46.965786    -7.854077    17.989977    7.107677    -9.405972    0.811854    -4.013561    -0.883097
-0.585973    76.267494    116.071190    5.214593    -23.780334    176.839966    -1.920897    -3.155699    -1.679024    5.454483    3.500770    -1.792942    7.959947    1.518364    2.831276    3.271722    -10.688382    2.631716    3.946950    6.958845    -9.325541    -35.556000    20.141529    -38.220665    7.393178    -3.450446    -17.795881    15.516055    -2.445475    -1.121354    8.841488    17.478544    -8.906750    47.577957    34.187370    23.452723    -3.363706    -9.420334    17.862867    -9.936065    -8.722356    -2.048313    36.374737    -47.540077    25.866941    -8.725563    47.563065    16.871210    -15.045997    -10.070814    -25.680819    3.696973    -1.745607    -4.110734    -40.304317    -47.851177    -25.999350    13.245916    45.878613    -7.166365    18.177195    7.269996    -9.255323    0.797390    -3.996399    -0.867343
-0.032729    76.061096    116.118202    5.356589    -23.882252    177.130035    -2.065082    -3.170615    -1.677084    5.316741    3.599906    -1.787126    7.808677    0.974081    2.624643    3.761564    -10.685391    2.513636    4.085281    6.774429    -9.430919    -35.285225    19.955648    -37.981083    6.946278    -3.358322    -16.888018    15.688625    -2.462522    -0.983161    8.923478    17.567408    -8.912120    47.781708    34.289639    23.205778    -3.267053    -9.311501    17.712732    -9.849442    -8.634881    -2.040505    37.296276    -47.723846    26.509434    -8.775167    47.812214    16.781624    -15.329918    -9.907020    -25.919060    3.685379    -1.757104    -4.097930    -40.162025    -47.214310    -25.633362    12.437949    44.799908    -6.450825    18.374699    7.365549    -9.082692    0.775462    -3.989079    -0.843482
0.538500    75.858170    116.160118    5.474134    -23.974068    177.415344    -2.224013    -3.197842    -1.671557    5.161671    3.699031    -1.776293    7.642985    0.487590    2.412834    4.241618    -10.703741    2.396192    4.211826    6.610065    -9.527763    -35.022293    19.784956    -37.732265    6.519381    -3.282361    -16.020090    15.847606    -2.482278    -0.842610    9.005836    17.661184    -8.917238    47.979595    34.429947    22.978983    -3.168102    -9.190501    17.558611    -9.753827    -8.536007    -2.027882    38.174541    -47.879021    27.106627    -8.810815    48.018017    16.676987    -15.632478    -9.733424    -26.145269    3.675159    -1.762478    -4.086611    -39.924294    -46.576103    -25.244904    11.653423    43.758331    -5.745219    18.581121    7.387776    -8.895894    0.744911    -3.993813    -0.810256
1.130558    75.658760    116.196419    5.566367    -24.055477    177.692459    -2.396634    -3.239000    -1.662888    4.989475    3.798523    -1.760709    7.462894    0.061758    2.199048    4.704731    -10.740601    2.281332    4.325471    6.468523    -9.613553    -34.769100    19.631845    -37.468578    6.109808    -3.222367    -15.191825    15.996816    -2.505973    -0.699057    9.086555    17.759325    -8.922547    48.170761    34.607895    22.773741    -3.066584    -9.056569    17.401876    -9.650124    -8.424842    -2.011053    39.008373    -48.003124    27.653233    -8.834187    48.178177    16.563843    -15.953424    -9.548535    -26.357748    3.666698    -1.762330    -4.077202    -39.599346    -45.935749    -24.826513    10.903474    42.747543    -5.067208    18.800728    7.333705    -8.695215    0.705032    -4.013206    -0.766901
1.745332    75.463623    116.226341    5.631528    -24.125414    177.957504    -2.581432    -3.295720    -1.651343    4.800248    3.898750    -1.740555    7.268608    -0.298718    1.986975    5.141884    -10.793210    2.170966    4.424738    6.352199    -9.685044    -34.529636    19.500500    -37.184452    5.715652    -3.178784    -14.405027    16.140175    -2.535036    -0.552537    9.163066    17.861355    -8.928539    48.353905    34.822269    22.592493    -2.961910    -8.909533    17.244621    -9.540052    -8.301143    -1.990631    39.792282    -48.092758    28.139036    -8.847404    48.288662    16.451590    -16.292641    -9.349884    -26.555010    3.660433    -1.757052    -4.070197    -39.194019    -45.293274    -24.371683    10.199342    41.765095    -4.433872    19.036980    7.194564    -8.480618    0.654971    -4.050975    -0.712487
2.378577    75.275482    116.248848    5.667415    -24.181873    178.204102    -2.774559    -3.368511    -1.637107    4.595870    3.998951    -1.716086    7.062871    -0.588142    1.782374    5.539312    -10.856043    2.067343    4.507148    6.264240    -9.737604    -34.310890    19.396708    -36.877647    5.338664    -3.152072    -13.668366    16.278866    -2.570370    -0.404454    9.232398    17.964548    -8.935663    48.526203    35.070202    22.437614    -2.854826    -8.751682    17.091125    -9.427490    -8.166804    -1.967683    40.512398    -48.143547    28.548500    -8.851619    48.344093    16.351738    -16.646591    -9.135373    -26.734915    3.657447    -1.748252    -4.066810    -38.719460    -44.654568    -23.879505    9.556479    40.819004    -3.865403    19.289583    6.957759    -8.255612    0.595278    -4.109884    -0.647608
3.029818    75.095924    116.263176    5.672735    -24.223225    178.427994    -2.972458    -3.457773    -1.620512    4.376534    4.098371    -1.687439    6.847599    -0.803136    1.589539    5.886715    -10.923882    1.972034    4.571507    6.207819    -9.766588    -34.119926    19.323984    -36.545006    4.977934    -3.140907    -12.983946    16.412685    -2.611745    -0.256140    9.292145    18.067364    -8.942942    48.686516    35.348961    22.309402    -2.745431    -8.585082    16.944164    -9.315574    -8.023689    -1.943310    41.160263    -48.152523    28.871458    -8.845307    48.341747    16.272499    -17.015720    -8.900516    -26.898439    3.656763    -1.738003    -4.065973    -38.184399    -44.021626    -23.348423    8.982169    39.912811    -3.373057    19.557478    6.604787    -8.024827    0.526542    -4.191476    -0.572898
3.697557    74.926910    116.268730    5.646389    -24.247799    178.624481    -3.171036    -3.562796    -1.601739    4.142802    4.195030    -1.654874    6.625373    -0.941318    1.413294    6.173744    -10.990887    1.886550    4.615736    6.185041    -9.767212    -33.965218    19.286049    -36.182049    4.633669    -3.142467    -12.355139    16.537415    -2.657135    -0.108913    9.340395    18.168104    -8.948713    48.832607    35.656094    22.207792    -2.634547    -8.412990    16.806683    -9.207610    -7.874732    -1.918535    41.727470    -48.116913    29.099823    -8.825261    48.279484    16.219721    -17.398638    -8.640837    -27.046299    3.655844    -1.728929    -4.064883    -37.598145    -43.398300    -22.781345    8.479142    39.052948    -2.961714    19.836401    6.114798    -7.795898    0.449083    -4.292970    -0.488693
4.378628    74.770767    116.265152    5.588074    -24.254065    178.788544    -3.365518    -3.681685    -1.580995    3.895832    4.285697    -1.618609    6.400593    -1.001411    1.259018    6.389800    -11.050910    1.812430    4.637778    6.197202    -9.735428    -33.857056    19.285688    -35.783649    4.307704    -3.151870    -11.786000    16.644770    -2.702504    0.035293    9.375454    18.264891    -8.950141    48.962357    35.988331    22.131710    -2.523882    -8.239305    16.681293    -9.105869    -7.723456    -1.894026    42.207340    -48.034481    29.226915    -8.790462    48.157234    16.198597    -17.793764    -8.352753    -27.177834    3.649889    -1.725535    -4.058237    -36.971195    -42.791183    -22.187399    8.045312    38.249512    -2.629183    20.116697    5.470072    -7.577417    0.362979    -4.404587    -0.395058
5.075151    74.628731    116.252304    5.497485    -24.240534    178.916275    -3.553084    -3.812726    -1.558096    3.635767    4.367853    -1.578509    6.174595    -0.984203    1.130588    6.529913    -11.098775    1.751281    4.635993    6.246047    -9.666768    -33.806595    19.322750    -35.341850    4.000012    -3.161796    -11.276330    16.724997    -2.741436    0.176058    9.396397    18.356958    -8.944679    49.072414    36.345676    22.081060    -2.414680    -8.066977    16.569727    -9.010547    -7.572623    -1.870005    42.599190    -47.901939    29.246431    -8.743980    47.973930    16.216146    -18.200205    -8.030714    -27.290508    3.634086    -1.732427    -4.040721    -36.309017    -42.203377    -21.574909    7.671499    37.507198    -2.363816    20.383959    4.654246    -7.375548    0.268041    -4.507357    -0.291773
5.782300    74.503487    116.230453    5.376057    -24.206108    179.002762    -3.729402    -3.953032    -1.533064    3.366153    4.439136    -1.534814    5.952539    -0.892063    1.033453    6.587234    -11.130504    1.705281    4.609311    6.333101    -9.558037    -33.825821    19.394352    -34.853344    3.714265    -3.164168    -10.830712    16.766882    -2.766570    0.311662    9.401714    18.442207    -8.929281    49.158829    36.724255    22.056044    -2.309708    -7.900520    16.474693    -8.922129    -7.426365    -1.846095    42.900833    -47.717297    29.152323    -8.691894    47.730816    16.279428    -18.611380    -7.673522    -27.378284    3.604367    -1.755335    -4.007852    -35.623596    -41.644730    -20.960995    7.350399    36.837654    -2.151479    20.613270    3.672264    -7.194860    0.165692    -4.571409    -0.180377
